<?xml version="1.0" encoding="utf-8"?>
<!-- Generator: Adobe Illustrator 16.0.3, SVG Export Plug-In . SVG Version: 6.00 Build 0)  -->
<!DOCTYPE svg PUBLIC "-//W3C//DTD SVG 1.1//EN" "http://www.w3.org/Graphics/SVG/1.1/DTD/svg11.dtd">
<svg version="1.1" id="Capa_1" xmlns="http://www.w3.org/2000/svg" xmlns:xlink="http://www.w3.org/1999/xlink" x="0px" y="0px"
	 width="193px" height="232px" viewBox="0 0 193 232" enable-background="new 0 0 193 232" xml:space="preserve">
<g>
	<g id="XMLID_1_">
		<g>
			<g id="XMLID_2_">
				<g>
					<path fill="none" stroke="#000000" stroke-miterlimit="10" d="M763.08,151.2c-1.32-1.42-2.68-2.84-4.08-4.24l-0.25-0.25
						c-1.2-1.19-2.4-2.35-3.61-3.48c-3.71-3.46-7.46-6.63-11.199-9.47c-0.87-0.68-1.74-1.32-2.61-1.96
						c-0.89,0.65-1.78,1.31-2.68,2.01c-3.73,2.83-7.49,6-11.19,9.47c-1.25,1.17-2.49,2.37-3.729,3.6
						c-0.03,0.03-0.061,0.06-0.091,0.09c-1.399,1.4-2.76,2.81-4.069,4.23c0.09-1.22,0.189-2.43,0.31-3.62
						c0.11-1.12,0.24-2.23,0.37-3.32c0.86-6.8,2.22-13.02,3.99-18.4c0.41-1.26,0.84-2.46,1.29-3.62c4.01-10.24,9.6-16.6,15.79-16.6
						c6.189,0,11.779,6.36,15.79,16.61c0.439,1.11,0.85,2.26,1.25,3.46c1.779,5.39,3.159,11.65,4.029,18.48
						c0.13,1.05,0.25,2.12,0.36,3.21C762.87,148.65,762.98,149.92,763.08,151.2z"/>
					<path fill="none" stroke="#000000" stroke-miterlimit="10" d="M750.3,142.83c-2.85-0.18-5.78-0.27-8.76-0.27
						c-3.16,0-6.26,0.11-9.271,0.31c3-2.65,6.011-5.06,9-7.23C744.26,137.79,747.29,140.2,750.3,142.83z"/>
					<path fill="none" stroke="#000000" stroke-miterlimit="10" d="M763.41,160.86c0,4.55-0.22,8.98-0.641,13.22
						c-0.159,1.68-0.359,3.34-0.59,4.96c-0.14,1.02-0.29,2.03-0.449,3.02c-0.19,1.101-0.391,2.181-0.601,3.24
						c-1.29,6.561-3.1,12.38-5.28,17.15c-0.51,1.109-1.04,2.16-1.59,3.149c-3.63,6.591-8.1,10.471-12.939,10.471
						s-9.311-3.88-12.94-10.471c-0.57-1.029-1.12-2.119-1.649-3.27c-2.15-4.76-3.94-10.57-5.23-17.1c-0.21-1.091-0.41-2.19-0.6-3.32
						c-0.15-0.94-0.301-1.891-0.431-2.86c-0.229-1.64-0.43-3.32-0.6-5.02c-0.36-3.69-0.57-7.53-0.62-11.47
						c-0.01-0.57-0.01-1.13-0.01-1.7c0-1.67,0.029-3.33,0.09-4.97c2.03-2.36,4.22-4.7,6.53-7.01c0.909-0.91,1.83-1.8,2.75-2.68
						c4.17-0.47,8.58-0.73,13.14-0.73c4.2,0,8.27,0.22,12.15,0.62c1.069,1,2.13,2.03,3.189,3.09c2.2,2.2,4.28,4.42,6.23,6.66
						C763.38,157.49,763.41,159.17,763.41,160.86z"/>
					<path fill="none" stroke="#000000" stroke-width="0.8834" stroke-miterlimit="10" d="M763.08,151.2
						c-1.32-1.42-2.68-2.84-4.08-4.24l-0.25-0.25c-1.2-1.19-2.4-2.35-3.61-3.48c-3.71-3.46-7.46-6.63-11.199-9.47
						c-0.87-0.68-1.74-1.32-2.61-1.96c-0.89,0.65-1.78,1.31-2.68,2.01c-3.73,2.83-7.49,6-11.19,9.47c-1.25,1.17-2.49,2.37-3.729,3.6
						c-0.03,0.03-0.061,0.06-0.091,0.09c-1.399,1.4-2.76,2.81-4.069,4.23c0.09-1.22,0.189-2.43,0.31-3.62
						c0.11-1.12,0.24-2.23,0.37-3.32c0.86-6.8,2.22-13.02,3.99-18.4c0.41-1.26,0.84-2.46,1.29-3.62c4.01-10.24,9.6-16.6,15.79-16.6
						c6.189,0,11.779,6.36,15.79,16.61c0.439,1.11,0.85,2.26,1.25,3.46c1.779,5.39,3.159,11.65,4.029,18.48
						c0.13,1.05,0.25,2.12,0.36,3.21C762.87,148.65,762.98,149.92,763.08,151.2z"/>
					<path fill="none" stroke="#000000" stroke-width="0.8834" stroke-miterlimit="10" d="M750.3,142.83
						c-2.85-0.18-5.78-0.27-8.76-0.27c-3.16,0-6.26,0.11-9.271,0.31c3-2.65,6.011-5.06,9-7.23
						C744.26,137.79,747.29,140.2,750.3,142.83z"/>
					<path fill="none" stroke="#000000" stroke-width="0.8834" stroke-miterlimit="10" d="M763.41,160.86
						c0,4.55-0.22,8.98-0.641,13.22c-0.159,1.68-0.359,3.34-0.59,4.96c-0.14,1.02-0.29,2.03-0.449,3.02
						c-0.19,1.101-0.391,2.181-0.601,3.24c-1.29,6.561-3.1,12.38-5.28,17.15c-0.51,1.109-1.04,2.16-1.59,3.149
						c-3.63,6.591-8.1,10.471-12.939,10.471s-9.311-3.88-12.94-10.471c-0.57-1.029-1.12-2.119-1.649-3.27
						c-2.15-4.76-3.94-10.57-5.23-17.1c-0.21-1.091-0.41-2.19-0.6-3.32c-0.15-0.94-0.301-1.891-0.431-2.86
						c-0.229-1.64-0.43-3.32-0.6-5.02c-0.36-3.69-0.57-7.53-0.62-11.47c-0.01-0.57-0.01-1.13-0.01-1.7c0-1.67,0.029-3.33,0.09-4.97
						c2.03-2.36,4.22-4.7,6.53-7.01c0.909-0.91,1.83-1.8,2.75-2.68c4.17-0.47,8.58-0.73,13.14-0.73c4.2,0,8.27,0.22,12.15,0.62
						c1.069,1,2.13,2.03,3.189,3.09c2.2,2.2,4.28,4.42,6.23,6.66C763.38,157.49,763.41,159.17,763.41,160.86z"/>
					<path fill="none" stroke="#000000" stroke-width="0.8834" stroke-miterlimit="10" d="M708.48,164.65
						c-2.58,3.56-4.851,7.09-6.79,10.52c-0.74,1.3-1.431,2.58-2.07,3.85c-8.29-3.87-13.3-8.89-13.3-14.379
						c0-5.49,5.01-10.51,13.3-14.37c1.09-0.51,2.25-1,3.45-1.47c4.109-1.6,8.859-2.94,14.06-3.97c-0.12,1.13-0.229,2.28-0.32,3.44
						c-0.17,2.1-0.3,4.25-0.38,6.42c-2.12,2.42-4.1,4.85-5.949,7.27C709.8,162.86,709.13,163.76,708.48,164.65z"/>
					<path fill="none" stroke="#000000" stroke-width="0.8834" stroke-miterlimit="10" d="M718.23,184.67
						c-5.641-1.05-10.761-2.47-15.16-4.18c0.52-1.19,1.1-2.4,1.729-3.63c1.57-3.08,3.48-6.28,5.681-9.53
						c0.6-0.89,1.22-1.78,1.88-2.68c1.229-1.72,2.56-3.45,3.97-5.19c-0.01,0.39-0.01,0.78-0.01,1.18c0,0.65,0,1.3,0.02,1.94
						c0.021,2.58,0.12,5.11,0.271,7.6c0.109,1.72,0.239,3.42,0.399,5.09c0.19,2.03,0.431,4.01,0.7,5.95
						C717.87,182.38,718.05,183.54,718.23,184.67z"/>
					<path fill="none" stroke="#000000" stroke-width="0.8834" stroke-miterlimit="10" d="M763.08,151.2
						c-1.32-1.42-2.68-2.84-4.08-4.24l-0.25-0.25c-1.2-1.19-2.4-2.35-3.61-3.48c2.49,0.26,4.91,0.58,7.25,0.96
						c0.13,1.05,0.25,2.12,0.36,3.21C762.87,148.65,762.98,149.92,763.08,151.2z"/>
					<path fill="none" stroke="#000000" stroke-width="0.8834" stroke-miterlimit="10" d="M727.46,143.28
						c-1.25,1.17-2.49,2.37-3.729,3.6c-0.03,0.03-0.061,0.06-0.091,0.09c-1.399,1.4-2.76,2.81-4.069,4.23
						c0.09-1.22,0.189-2.43,0.31-3.62c0.11-1.12,0.24-2.23,0.37-3.32C722.58,143.87,724.98,143.54,727.46,143.28z"/>
					<path fill="none" stroke="#000000" stroke-width="0.8834" stroke-miterlimit="10" d="M763.41,160.86
						c0,4.55-0.22,8.98-0.641,13.22c-0.159,1.68-0.359,3.34-0.59,4.96c-0.14,1.02-0.29,2.03-0.449,3.02
						c-0.19,1.101-0.391,2.181-0.601,3.24c-1.95,0.3-3.96,0.55-6.01,0.76c-1.58,0.16-3.19,0.29-4.82,0.4
						c-2.85,0.18-5.78,0.271-8.76,0.271c-3.16,0-6.26-0.11-9.271-0.311c-1.63-0.11-3.229-0.25-4.81-0.41
						c-2.04-0.22-4.03-0.479-5.96-0.779c-0.21-1.091-0.41-2.19-0.6-3.32c-0.15-0.94-0.301-1.891-0.431-2.86
						c-0.229-1.64-0.43-3.32-0.6-5.02c-0.36-3.69-0.57-7.53-0.62-11.47c-0.01-0.57-0.01-1.13-0.01-1.7c0-1.67,0.029-3.33,0.09-4.97
						c2.03-2.36,4.22-4.7,6.53-7.01c0.909-0.91,1.83-1.8,2.75-2.68c4.17-0.47,8.58-0.73,13.14-0.73c4.2,0,8.27,0.22,12.15,0.62
						c1.069,1,2.13,2.03,3.189,3.09c2.2,2.2,4.28,4.42,6.23,6.66C763.38,157.49,763.41,159.17,763.41,160.86z"/>
					<path fill="none" stroke="#000000" stroke-width="0.8834" stroke-miterlimit="10" d="M766.02,170.27
						c0.2-3.14,0.301-6.36,0.301-9.63c0-0.42,0-0.84-0.011-1.26c1.44,1.76,2.79,3.52,4.061,5.27
						C769.01,166.52,767.56,168.39,766.02,170.27z"/>
					<path fill="none" stroke="#000000" stroke-width="0.8834" stroke-miterlimit="10" d="M779.78,180.57
						c-4.471,1.72-9.66,3.14-15.38,4.18c0.17-1.09,0.35-2.2,0.5-3.32c0.29-2.01,0.529-4.06,0.729-6.16
						c2.351-2.66,4.55-5.34,6.58-8.01c2.31,3.37,4.29,6.68,5.92,9.87C778.73,178.3,779.28,179.45,779.78,180.57z"/>
					<path fill="none" stroke="#000000" stroke-width="0.8834" stroke-miterlimit="10" d="M779.78,148.72
						c-0.5,1.12-1.05,2.27-1.65,3.44c-1.63,3.19-3.61,6.5-5.92,9.87c-1.85-2.45-3.86-4.9-6-7.35c-0.09-2.24-0.22-4.45-0.4-6.62
						c-0.09-1.11-0.189-2.22-0.31-3.31C770.79,145.76,775.6,147.11,779.78,148.72z"/>
					<path fill="none" stroke="#000000" stroke-width="0.8834" stroke-miterlimit="10" d="M796.75,164.64
						c0,5.57-5.15,10.65-13.64,14.54c-0.601-1.189-1.24-2.41-1.931-3.63c-1.989-3.55-4.34-7.21-7.02-10.91
						c2.68-3.7,5.03-7.36,7.02-10.91c0.69-1.22,1.33-2.43,1.92-3.62C791.6,153.98,796.75,159.07,796.75,164.64z"/>
					<path fill="none" stroke="#000000" stroke-width="0.7669" stroke-miterlimit="10" d="M708.48,164.65
						c-2.58,3.56-4.851,7.09-6.79,10.52c-4.98-3.02-7.87-6.64-7.87-10.53c0-3.89,2.89-7.51,7.859-10.53c0.96-0.58,2-1.14,3.11-1.69
						c3.39-1.63,7.45-3.04,12.02-4.15c-0.17,2.1-0.3,4.25-0.38,6.42c-2.12,2.42-4.1,4.85-5.949,7.27
						C709.8,162.86,709.13,163.76,708.48,164.65z"/>
					<path fill="none" stroke="#000000" stroke-width="0.7669" stroke-miterlimit="10" d="M717.71,181.22
						c-4.93-1.14-9.29-2.62-12.91-4.36c1.57-3.08,3.48-6.28,5.681-9.53c0.6-0.89,1.22-1.78,1.88-2.68
						c1.229-1.72,2.56-3.45,3.97-5.19c-0.01,0.39-0.01,0.78-0.01,1.18c0,0.65,0,1.3,0.02,1.94c0.021,2.58,0.12,5.11,0.271,7.6
						c0.109,1.72,0.239,3.42,0.399,5.09C717.2,177.3,717.44,179.28,717.71,181.22z"/>
					<path fill="none" stroke="#000000" stroke-width="0.7669" stroke-miterlimit="10" d="M763.08,151.2
						c-1.32-1.42-2.68-2.84-4.08-4.24l-0.25-0.25c1.37,0.21,2.7,0.44,4,0.69C762.87,148.65,762.98,149.92,763.08,151.2z"/>
					<path fill="none" stroke="#000000" stroke-width="0.7669" stroke-miterlimit="10" d="M723.73,146.88
						c-0.03,0.03-0.061,0.06-0.091,0.09c-1.399,1.4-2.76,2.81-4.069,4.23c0.09-1.22,0.189-2.43,0.31-3.62
						C721.13,147.32,722.42,147.09,723.73,146.88z"/>
					<path fill="none" stroke="#000000" stroke-width="0.7669" stroke-miterlimit="10" d="M763.41,160.86
						c0,4.55-0.22,8.98-0.641,13.22c-0.159,1.68-0.359,3.34-0.59,4.96c-0.14,1.02-0.29,2.03-0.449,3.02
						c-0.971,0.19-1.971,0.351-2.98,0.511c-1.57,0.239-3.18,0.439-4.83,0.62c-3.89,0.399-7.97,0.619-12.17,0.619
						c-4.56,0-8.97-0.26-13.15-0.729c-1.67-0.19-3.3-0.42-4.88-0.68c-0.96-0.15-1.899-0.32-2.819-0.49
						c-0.15-0.94-0.301-1.891-0.431-2.86c-0.229-1.64-0.43-3.32-0.6-5.02c-0.36-3.69-0.57-7.53-0.62-11.47
						c-0.01-0.57-0.01-1.13-0.01-1.7c0-1.67,0.029-3.33,0.09-4.97c2.03-2.36,4.22-4.7,6.53-7.01c0.909-0.91,1.83-1.8,2.75-2.68
						c4.17-0.47,8.58-0.73,13.14-0.73c4.2,0,8.27,0.22,12.15,0.62c1.069,1,2.13,2.03,3.189,3.09c2.2,2.2,4.28,4.42,6.23,6.66
						C763.38,157.49,763.41,159.17,763.41,160.86z"/>
					<path fill="none" stroke="#000000" stroke-width="0.7669" stroke-miterlimit="10" d="M766.02,170.27
						c0.2-3.14,0.301-6.36,0.301-9.63c0-0.42,0-0.84-0.011-1.26c1.44,1.76,2.79,3.52,4.061,5.27
						C769.01,166.52,767.56,168.39,766.02,170.27z"/>
					<path fill="none" stroke="#000000" stroke-width="0.7669" stroke-miterlimit="10" d="M778.13,177.13
						c-3.72,1.72-8.2,3.19-13.229,4.3c0.29-2.01,0.529-4.06,0.729-6.16c2.351-2.66,4.55-5.34,6.58-8.01
						C774.52,170.63,776.5,173.94,778.13,177.13z"/>
					<path fill="none" stroke="#000000" stroke-width="0.7669" stroke-miterlimit="10" d="M778.13,152.16
						c-1.63,3.19-3.61,6.5-5.92,9.87c-1.85-2.45-3.86-4.9-6-7.35c-0.09-2.24-0.22-4.45-0.4-6.62
						C770.47,149.14,774.64,150.53,778.13,152.16z"/>
					<path fill="none" stroke="#000000" stroke-width="0.7669" stroke-miterlimit="10" d="M789.68,164.64
						c0,4.06-3.14,7.81-8.5,10.91c-1.989-3.55-4.34-7.21-7.02-10.91c2.68-3.7,5.03-7.36,7.02-10.91
						C786.54,156.83,789.68,160.58,789.68,164.64z"/>
					<path fill="none" stroke="#000000" stroke-miterlimit="10" d="M716.61,170.18c0.109,1.72,0.239,3.42,0.399,5.09
						c-2.33-2.64-4.51-5.3-6.529-7.94c0.6-0.89,1.22-1.78,1.88-2.68c1.229-1.72,2.56-3.45,3.97-5.19c-0.01,0.39-0.01,0.78-0.01,1.18
						c0,0.65,0,1.3,0.02,1.94C716.36,165.16,716.46,167.69,716.61,170.18z"/>
					<path fill="none" stroke="#000000" stroke-miterlimit="10" d="M722.09,120.69c-0.42,1.26-0.82,2.57-1.2,3.91
						c-1.699,6.04-3,12.87-3.76,20.23c-0.12,1.13-0.229,2.28-0.32,3.44c-0.17,2.1-0.3,4.25-0.38,6.42
						c-2.12,2.42-4.1,4.85-5.949,7.27c-0.681,0.9-1.351,1.8-2,2.69c-2.58-3.57-4.851-7.1-6.801-10.54
						c-0.739-1.29-1.42-2.58-2.06-3.84c-6.62-13.11-7.99-24.32-2.49-29.82C701.94,115.64,711.11,116.08,722.09,120.69z"/>
					<path fill="none" stroke="#000000" stroke-miterlimit="10" d="M741.33,131.8c-0.89,0.65-1.78,1.31-2.68,2.01
						c-3.73,2.83-7.49,6-11.19,9.47c-1.25,1.17-2.49,2.37-3.729,3.6c-0.03,0.03-0.061,0.06-0.091,0.09
						c-1.399,1.4-2.76,2.81-4.069,4.23c0.09-1.22,0.189-2.43,0.31-3.62c0.11-1.12,0.24-2.23,0.37-3.32
						c0.86-6.8,2.22-13.02,3.99-18.4c0.41-1.26,0.84-2.46,1.29-3.62C730.56,124.66,735.9,127.88,741.33,131.8z"/>
					<path fill="none" stroke="#000000" stroke-miterlimit="10" d="M750.3,142.83c-2.85-0.18-5.78-0.27-8.76-0.27
						c-3.16,0-6.26,0.11-9.271,0.31c3-2.65,6.011-5.06,9-7.23C744.26,137.79,747.29,140.2,750.3,142.83z"/>
					<path fill="none" stroke="#000000" stroke-miterlimit="10" d="M763.41,160.86c0,4.55-0.22,8.98-0.641,13.22
						c-0.159,1.68-0.359,3.34-0.59,4.96c-0.14,1.02-0.29,2.03-0.449,3.02c-0.19,1.101-0.391,2.181-0.601,3.24
						c-1.29,6.561-3.1,12.38-5.28,17.15c-0.51,1.109-1.04,2.16-1.59,3.149c-4.17-2.199-8.529-4.93-12.939-8.119
						c-0.891-0.641-1.78-1.311-2.681-2c-3.729-2.841-7.479-6.011-11.18-9.471c-1.25-1.17-2.5-2.37-3.74-3.609
						c-0.029-0.03-0.05-0.051-0.08-0.08c-1.08-1.08-2.14-2.17-3.17-3.271c-0.229-1.64-0.43-3.32-0.6-5.02
						c-0.36-3.69-0.57-7.53-0.62-11.47c-0.01-0.57-0.01-1.13-0.01-1.7c0-1.67,0.029-3.33,0.09-4.97c2.03-2.36,4.22-4.7,6.53-7.01
						c0.909-0.91,1.83-1.8,2.75-2.68c4.17-0.47,8.58-0.73,13.14-0.73c4.2,0,8.27,0.22,12.15,0.62c1.069,1,2.13,2.03,3.189,3.09
						c2.2,2.2,4.28,4.42,6.23,6.66C763.38,157.49,763.41,159.17,763.41,160.86z"/>
					<path fill="none" stroke="#000000" stroke-miterlimit="10" d="M766.02,170.27c0.2-3.14,0.301-6.36,0.301-9.63
						c0-0.42,0-0.84-0.011-1.26c1.44,1.76,2.79,3.52,4.061,5.27C769.01,166.52,767.56,168.39,766.02,170.27z"/>
					<path fill="none" stroke="#000000" stroke-miterlimit="10" d="M780.52,203.84c-4.119,4.12-11.869,3.87-21.18,0.141
						c2.12-5.53,3.851-12.04,5.061-19.23c0.17-1.09,0.35-2.2,0.5-3.32c0.29-2.01,0.529-4.06,0.729-6.16
						c2.351-2.66,4.55-5.34,6.58-8.01c2.31,3.37,4.29,6.68,5.92,9.87c0.601,1.17,1.15,2.32,1.65,3.44
						C784.33,190.81,784.94,199.41,780.52,203.84z"/>
					<path fill="none" stroke="#000000" stroke-width="0.8834" stroke-miterlimit="10" d="M716.34,162.58
						c0.021,2.58,0.12,5.11,0.271,7.6c-1.511-1.85-2.931-3.7-4.25-5.53c1.229-1.72,2.56-3.45,3.97-5.19
						c-0.01,0.39-0.01,0.78-0.01,1.18C716.32,161.29,716.32,161.94,716.34,162.58z"/>
					<path fill="none" stroke="#000000" stroke-width="0.8834" stroke-miterlimit="10" d="M720.89,124.6
						c-1.699,6.04-3,12.87-3.76,20.23c-0.12,1.13-0.229,2.28-0.32,3.44c-0.17,2.1-0.3,4.25-0.38,6.42
						c-2.12,2.42-4.1,4.85-5.949,7.27c-2.211-3.25-4.11-6.45-5.69-9.54c-0.62-1.23-1.2-2.44-1.72-3.62
						c-4.471-10.14-5.03-18.65-0.641-23.05C706.15,122.04,712.8,121.87,720.89,124.6z"/>
					<path fill="none" stroke="#000000" stroke-width="0.8834" stroke-miterlimit="10" d="M738.65,133.81
						c-3.73,2.83-7.49,6-11.19,9.47c-1.25,1.17-2.49,2.37-3.729,3.6c-0.03,0.03-0.061,0.06-0.091,0.09
						c-1.399,1.4-2.76,2.81-4.069,4.23c0.09-1.22,0.189-2.43,0.31-3.62c0.11-1.12,0.24-2.23,0.37-3.32
						c0.86-6.8,2.22-13.02,3.99-18.4C728.77,127.73,733.65,130.41,738.65,133.81z"/>
					<path fill="none" stroke="#000000" stroke-width="0.8834" stroke-miterlimit="10" d="M750.3,142.83
						c-2.85-0.18-5.78-0.27-8.76-0.27c-3.16,0-6.26,0.11-9.271,0.31c3-2.65,6.011-5.06,9-7.23
						C744.26,137.79,747.29,140.2,750.3,142.83z"/>
					<path fill="none" stroke="#000000" stroke-width="0.8834" stroke-miterlimit="10" d="M763.41,160.86
						c0,4.55-0.22,8.98-0.641,13.22c-0.159,1.68-0.359,3.34-0.59,4.96c-0.14,1.02-0.29,2.03-0.449,3.02
						c-0.19,1.101-0.391,2.181-0.601,3.24c-1.29,6.561-3.1,12.38-5.28,17.15c-3.8-1.79-7.819-4.12-11.909-6.92
						c-0.891-0.601-1.78-1.23-2.671-1.88c-2.989-2.17-6.01-4.591-9-7.23c-1.229-1.07-2.449-2.189-3.67-3.34
						c-0.92-0.87-1.83-1.76-2.739-2.67c-2.11-2.1-4.11-4.24-5.99-6.38c-0.36-3.69-0.57-7.53-0.62-11.47
						c-0.01-0.57-0.01-1.13-0.01-1.7c0-1.67,0.029-3.33,0.09-4.97c2.03-2.36,4.22-4.7,6.53-7.01c0.909-0.91,1.83-1.8,2.75-2.68
						c4.17-0.47,8.58-0.73,13.14-0.73c4.2,0,8.27,0.22,12.15,0.62c1.069,1,2.13,2.03,3.189,3.09c2.2,2.2,4.28,4.42,6.23,6.66
						C763.38,157.49,763.41,159.17,763.41,160.86z"/>
					<path fill="none" stroke="#000000" stroke-width="0.8834" stroke-miterlimit="10" d="M766.02,170.27
						c0.2-3.14,0.301-6.36,0.301-9.63c0-0.42,0-0.84-0.011-1.26c1.44,1.76,2.79,3.52,4.061,5.27
						C769.01,166.52,767.56,168.39,766.02,170.27z"/>
					<path fill="none" stroke="#000000" stroke-width="0.8834" stroke-miterlimit="10" d="M780.52,203.84
						c-4.119,4.12-11.869,3.87-21.18,0.141c2.12-5.53,3.851-12.04,5.061-19.23c0.17-1.09,0.35-2.2,0.5-3.32
						c0.29-2.01,0.529-4.06,0.729-6.16c2.351-2.66,4.55-5.34,6.58-8.01c2.31,3.37,4.29,6.68,5.92,9.87
						c0.601,1.17,1.15,2.32,1.65,3.44C784.33,190.81,784.94,199.41,780.52,203.84z"/>
					<path fill="none" stroke="#000000" stroke-miterlimit="10" d="M766.02,170.27c0.2-3.14,0.301-6.36,0.301-9.63
						c0-0.42,0-0.84-0.011-1.26c1.44,1.76,2.79,3.52,4.061,5.27C769.01,166.52,767.56,168.39,766.02,170.27z"/>
					<path fill="#32F4FF" stroke="#000000" stroke-miterlimit="10" d="M613.11,180.261c-0.601-1.189-1.24-2.41-1.931-3.63
						c-1.989-3.55-4.34-7.21-7.02-10.91c2.68-3.7,5.03-7.36,7.02-10.91c0.69-1.22,1.33-2.43,1.92-3.62
						c6.561-13.04,7.9-24.18,2.42-29.66c-4.81-4.81-13.979-4.37-24.97,0.25c-4.58-13.78-11.5-22.56-19.229-22.56
						c-7.73,0-14.641,8.77-19.23,22.55c-0.42,1.26-0.82,2.57-1.2,3.91c-1.699,6.04-3,12.87-3.76,20.23
						c-0.12,1.13-0.229,2.28-0.32,3.44c-0.17,2.1-0.3,4.25-0.38,6.42c-2.12,2.42-4.1,4.85-5.949,7.27c-0.681,0.9-1.351,1.8-2,2.69
						c-2.58,3.56-4.851,7.09-6.79,10.52c-0.74,1.3-1.431,2.581-2.07,3.85c-6.62,13.1-7.99,24.32-2.49,29.82
						c5.19,5.189,15.46,4.26,27.61-1.42c4.42,9.779,10.22,15.719,16.58,15.719c6.359,0,12.17-5.939,16.58-15.719
						c12.149,5.68,22.42,6.609,27.619,1.42C621,204.431,619.66,193.3,613.11,180.261z M610.52,126.531
						c4.421,4.42,3.811,13.02-0.739,23.27c-0.5,1.12-1.05,2.27-1.65,3.44c-1.63,3.19-3.61,6.5-5.92,9.87c-1.85-2.45-3.86-4.9-6-7.35
						c-0.09-2.24-0.22-4.45-0.4-6.62c-0.09-1.11-0.189-2.22-0.31-3.31c-0.77-7.4-2.08-14.27-3.8-20.33
						C599.95,122.641,606.75,122.761,610.52,126.531z M596.31,160.46c1.44,1.76,2.79,3.52,4.061,5.27
						c-1.36,1.87-2.811,3.74-4.351,5.62c0.2-3.14,0.301-6.36,0.301-9.63C596.32,161.301,596.32,160.88,596.31,160.46z
						 M549.88,148.661c0.11-1.12,0.24-2.23,0.37-3.32c0.86-6.8,2.22-13.02,3.99-18.4c0.41-1.26,0.84-2.46,1.29-3.62
						c4.01-10.24,9.6-16.6,15.79-16.6c6.189,0,11.779,6.36,15.79,16.61c0.439,1.11,0.85,2.26,1.25,3.46
						c1.779,5.39,3.159,11.65,4.029,18.48c0.13,1.05,0.25,2.12,0.36,3.21c0.12,1.25,0.23,2.52,0.33,3.8
						c-1.32-1.42-2.68-2.84-4.08-4.24l-0.25-0.25c-1.2-1.19-2.4-2.35-3.61-3.48c-3.71-3.46-7.46-6.63-11.199-9.47
						c-0.87-0.68-1.74-1.32-2.61-1.96c-0.89,0.65-1.78,1.31-2.68,2.01c-3.73,2.83-7.49,6-11.19,9.47c-1.25,1.17-2.49,2.37-3.729,3.6
						c-0.03,0.03-0.061,0.06-0.091,0.09c-1.399,1.4-2.76,2.81-4.069,4.23C549.66,151.061,549.76,149.851,549.88,148.661z
						 M580.3,143.911c-2.85-0.18-5.78-0.27-8.76-0.27c-3.16,0-6.26,0.11-9.271,0.31c3-2.65,6.011-5.06,9-7.23
						C574.26,138.871,577.29,141.281,580.3,143.911z M532.43,204.62c-4.39-4.4-3.83-12.91,0.641-23.049
						c0.52-1.191,1.1-2.4,1.729-3.631c1.57-3.08,3.48-6.28,5.681-9.53c0.6-0.89,1.22-1.78,1.88-2.68c1.229-1.72,2.56-3.45,3.97-5.19
						c-0.01,0.39-0.01,0.78-0.01,1.18c0,0.65,0,1.3,0.02,1.94c0.021,2.58,0.12,5.11,0.271,7.6c0.109,1.72,0.239,3.42,0.399,5.09
						c0.19,2.029,0.431,4.01,0.7,5.949c0.16,1.16,0.34,2.32,0.521,3.451c1.199,7.15,2.909,13.639,5.01,19.16
						C544.09,208.501,536.5,208.681,532.43,204.62z M585.85,203.53c-0.51,1.109-1.04,2.16-1.59,3.15
						c-3.63,6.59-8.1,10.471-12.939,10.471s-9.311-3.881-12.94-10.471c-0.57-1.029-1.12-2.119-1.649-3.27
						c-2.15-4.76-3.94-10.57-5.23-17.1c-0.21-1.092-0.41-2.191-0.6-3.32c-0.15-0.941-0.301-1.891-0.431-2.861
						c-0.229-1.639-0.43-3.319-0.6-5.02c-0.36-3.69-0.57-7.53-0.62-11.47c-0.01-0.57-0.01-1.13-0.01-1.7
						c0-1.67,0.029-3.33,0.09-4.97c2.03-2.36,4.22-4.7,6.53-7.01c0.909-0.91,1.83-1.8,2.75-2.68c4.17-0.47,8.58-0.73,13.14-0.73
						c4.2,0,8.27,0.22,12.15,0.62c1.069,1,2.13,2.03,3.189,3.09c2.2,2.2,4.28,4.42,6.23,6.66c0.06,1.65,0.09,3.33,0.09,5.02
						c0,4.55-0.22,8.98-0.641,13.22c-0.159,1.68-0.359,3.34-0.59,4.959c-0.14,1.02-0.29,2.031-0.449,3.02
						c-0.19,1.102-0.391,2.182-0.601,3.24C589.84,192.94,588.03,198.761,585.85,203.53z M610.52,204.921
						c-4.119,4.119-11.869,3.869-21.18,0.141c2.12-5.531,3.851-12.041,5.061-19.23c0.17-1.09,0.35-2.201,0.5-3.32
						c0.29-2.01,0.529-4.061,0.729-6.16c2.351-2.66,4.55-5.34,6.58-8.01c2.31,3.37,4.29,6.68,5.92,9.87
						c0.601,1.17,1.15,2.32,1.65,3.441C614.33,191.89,614.94,200.491,610.52,204.921z"/>
					<path fill="#32F4FF" stroke="#000000" stroke-miterlimit="10" d="M138.285,134.541c-0.601-1.189-1.24-2.41-1.931-3.63
						c-1.989-3.55-4.34-7.21-7.02-10.91c2.68-3.7,5.03-7.36,7.02-10.91c0.69-1.22,1.33-2.43,1.92-3.62
						c6.561-13.04,7.9-24.18,2.42-29.66c-4.81-4.81-13.979-4.37-24.97,0.25c-4.58-13.78-11.5-22.56-19.229-22.56
						c-7.73,0-14.641,8.77-19.23,22.55c-0.42,1.26-0.82,2.57-1.2,3.91c-1.699,6.04-3,12.87-3.76,20.23
						c-0.12,1.13-0.229,2.28-0.32,3.44c-0.17,2.1-0.3,4.25-0.38,6.42c-2.12,2.42-4.1,4.85-5.949,7.27c-0.681,0.9-1.351,1.8-2,2.69
						c-2.58,3.56-4.851,7.09-6.79,10.52c-0.74,1.3-1.431,2.581-2.07,3.85c-6.62,13.1-7.99,24.32-2.49,29.82
						c5.19,5.189,15.46,4.26,27.61-1.42c4.42,9.779,10.22,15.719,16.58,15.719c6.359,0,12.17-5.939,16.58-15.719
						c12.149,5.68,22.42,6.609,27.619,1.42C146.175,158.71,144.835,147.58,138.285,134.541z M135.694,80.811
						c4.421,4.42,3.811,13.02-0.739,23.27c-0.5,1.12-1.05,2.27-1.65,3.44c-1.63,3.19-3.61,6.5-5.92,9.87c-1.85-2.45-3.86-4.9-6-7.35
						c-0.09-2.24-0.22-4.45-0.4-6.62c-0.09-1.11-0.189-2.22-0.31-3.31c-0.77-7.4-2.08-14.27-3.8-20.33
						C125.125,76.92,131.925,77.041,135.694,80.811z M121.484,114.74c1.44,1.76,2.79,3.52,4.061,5.27
						c-1.36,1.87-2.811,3.74-4.351,5.62c0.2-3.14,0.301-6.36,0.301-9.63C121.495,115.581,121.495,115.16,121.484,114.74z
						 M75.055,102.94c0.11-1.12,0.24-2.23,0.37-3.32c0.86-6.8,2.22-13.02,3.99-18.4c0.41-1.26,0.84-2.46,1.29-3.62
						c4.01-10.24,9.6-16.6,15.79-16.6c6.189,0,11.779,6.36,15.79,16.61c0.439,1.11,0.85,2.26,1.25,3.46
						c1.779,5.39,3.159,11.65,4.029,18.48c0.13,1.05,0.25,2.12,0.36,3.21c0.12,1.25,0.23,2.52,0.33,3.8
						c-1.32-1.42-2.68-2.84-4.08-4.24l-0.25-0.25c-1.2-1.19-2.4-2.35-3.61-3.48c-3.71-3.46-7.46-6.63-11.199-9.47
						c-0.87-0.68-1.74-1.32-2.61-1.96c-0.89,0.65-1.78,1.31-2.68,2.01c-3.73,2.83-7.49,6-11.19,9.47c-1.25,1.17-2.49,2.37-3.729,3.6
						c-0.03,0.03-0.061,0.06-0.091,0.09c-1.399,1.4-2.76,2.81-4.069,4.23C74.835,105.34,74.935,104.13,75.055,102.94z
						 M105.475,98.19c-2.85-0.18-5.78-0.27-8.76-0.27c-3.16,0-6.26,0.11-9.271,0.31c3-2.65,6.011-5.06,9-7.23
						C99.435,93.15,102.465,95.561,105.475,98.19z M57.604,158.9c-4.39-4.4-3.83-12.91,0.641-23.049c0.52-1.191,1.1-2.4,1.729-3.631
						c1.57-3.08,3.48-6.28,5.681-9.53c0.6-0.89,1.22-1.78,1.88-2.68c1.229-1.72,2.56-3.45,3.97-5.19c-0.01,0.39-0.01,0.78-0.01,1.18
						c0,0.65,0,1.3,0.02,1.94c0.021,2.58,0.12,5.11,0.271,7.6c0.109,1.72,0.239,3.42,0.399,5.09c0.19,2.029,0.431,4.01,0.7,5.949
						c0.16,1.16,0.34,2.32,0.521,3.451c1.199,7.15,2.909,13.639,5.01,19.16C69.265,162.781,61.675,162.96,57.604,158.9z
						 M111.024,157.81c-0.51,1.109-1.04,2.16-1.59,3.15c-3.63,6.59-8.1,10.471-12.939,10.471s-9.311-3.881-12.94-10.471
						c-0.57-1.029-1.12-2.119-1.649-3.27c-2.15-4.76-3.94-10.57-5.23-17.1c-0.21-1.092-0.41-2.191-0.6-3.32
						c-0.15-0.941-0.301-1.891-0.431-2.861c-0.229-1.639-0.43-3.319-0.6-5.02c-0.36-3.69-0.57-7.53-0.62-11.47
						c-0.01-0.57-0.01-1.13-0.01-1.7c0-1.67,0.029-3.33,0.09-4.97c2.03-2.36,4.22-4.7,6.53-7.01c0.909-0.91,1.83-1.8,2.75-2.68
						c4.17-0.47,8.58-0.73,13.14-0.73c4.2,0,8.27,0.22,12.15,0.62c1.069,1,2.13,2.03,3.189,3.09c2.2,2.2,4.28,4.42,6.23,6.66
						c0.06,1.65,0.09,3.33,0.09,5.02c0,4.55-0.22,8.98-0.641,13.22c-0.159,1.68-0.359,3.34-0.59,4.959
						c-0.14,1.02-0.29,2.031-0.449,3.02c-0.19,1.102-0.391,2.182-0.601,3.24C115.015,147.22,113.205,153.041,111.024,157.81z
						 M135.694,159.201c-4.119,4.119-11.869,3.869-21.18,0.141c2.12-5.531,3.851-12.041,5.061-19.23c0.17-1.09,0.35-2.201,0.5-3.32
						c0.29-2.01,0.529-4.061,0.729-6.16c2.351-2.66,4.55-5.34,6.58-8.01c2.31,3.37,4.29,6.68,5.92,9.87
						c0.601,1.17,1.15,2.32,1.65,3.441C139.505,146.169,140.115,154.771,135.694,159.201z"/>
					<path fill="none" stroke="#000000" stroke-miterlimit="10" d="M723.24,203.83c-9.15,3.59-16.74,3.77-20.811-0.29
						c-4.39-4.4-3.83-12.91,0.641-23.05c0.52-1.19,1.1-2.4,1.729-3.63c1.57-3.08,3.48-6.28,5.681-9.53c0.6-0.89,1.22-1.78,1.88-2.68
						c1.229-1.72,2.56-3.45,3.97-5.19c-0.01,0.39-0.01,0.78-0.01,1.18c0,0.65,0,1.3,0.02,1.94c0.021,2.58,0.12,5.11,0.271,7.6
						c0.109,1.72,0.239,3.42,0.399,5.09c0.19,2.03,0.431,4.01,0.7,5.95c0.16,1.16,0.34,2.32,0.521,3.45
						C719.43,191.82,721.14,198.31,723.24,203.83z"/>
					<path fill="none" stroke="#000000" stroke-miterlimit="10" d="M763.08,151.2c-1.32-1.42-2.68-2.84-4.08-4.24l-0.25-0.25
						c-1.2-1.19-2.4-2.35-3.61-3.48c-3.71-3.46-7.46-6.63-11.199-9.47c-0.87-0.68-1.74-1.32-2.61-1.96
						c5.42-3.92,10.75-7.14,15.78-9.55c0.439,1.11,0.85,2.26,1.25,3.46c1.779,5.39,3.159,11.65,4.029,18.48
						c0.13,1.05,0.25,2.12,0.36,3.21C762.87,148.65,762.98,149.92,763.08,151.2z"/>
					<path fill="none" stroke="#000000" stroke-miterlimit="10" d="M750.3,142.83c-2.85-0.18-5.78-0.27-8.76-0.27
						c-3.16,0-6.26,0.11-9.271,0.31c3-2.65,6.011-5.06,9-7.23C744.26,137.79,747.29,140.2,750.3,142.83z"/>
					<path fill="none" stroke="#000000" stroke-miterlimit="10" d="M763.41,160.86c0,4.55-0.22,8.98-0.641,13.22
						c-0.159,1.68-0.359,3.34-0.59,4.96c-1.029,1.1-2.09,2.19-3.18,3.28l-0.25,0.25c-1.2,1.199-2.41,2.359-3.63,3.489
						c-3.7,3.471-7.45,6.631-11.18,9.471c-0.881,0.67-1.75,1.319-2.62,1.95c-4.41,3.189-8.771,5.92-12.94,8.119
						c-0.57-1.029-1.12-2.119-1.649-3.27c-2.15-4.76-3.94-10.57-5.23-17.1c-0.21-1.091-0.41-2.19-0.6-3.32
						c-0.15-0.94-0.301-1.891-0.431-2.86c-0.229-1.64-0.43-3.32-0.6-5.02c-0.36-3.69-0.57-7.53-0.62-11.47
						c-0.01-0.57-0.01-1.13-0.01-1.7c0-1.67,0.029-3.33,0.09-4.97c2.03-2.36,4.22-4.7,6.53-7.01c0.909-0.91,1.83-1.8,2.75-2.68
						c4.17-0.47,8.58-0.73,13.14-0.73c4.2,0,8.27,0.22,12.15,0.62c1.069,1,2.13,2.03,3.189,3.09c2.2,2.2,4.28,4.42,6.23,6.66
						C763.38,157.49,763.41,159.17,763.41,160.86z"/>
					<path fill="none" stroke="#000000" stroke-miterlimit="10" d="M779.78,148.72c-0.5,1.12-1.05,2.27-1.65,3.44
						c-1.63,3.19-3.61,6.5-5.92,9.87c-1.85-2.45-3.86-4.9-6-7.35c-0.09-2.24-0.22-4.45-0.4-6.62c-0.09-1.11-0.189-2.22-0.31-3.31
						c-0.77-7.4-2.08-14.27-3.8-20.33c8.25-2.86,15.05-2.74,18.819,1.03C784.94,129.87,784.33,138.47,779.78,148.72z"/>
					<path fill="none" stroke="#000000" stroke-width="0.8834" stroke-miterlimit="10" d="M723.24,203.83
						c-9.15,3.59-16.74,3.77-20.811-0.29c-4.39-4.4-3.83-12.91,0.641-23.05c0.52-1.19,1.1-2.4,1.729-3.63
						c1.57-3.08,3.48-6.28,5.681-9.53c0.6-0.89,1.22-1.78,1.88-2.68c1.229-1.72,2.56-3.45,3.97-5.19c-0.01,0.39-0.01,0.78-0.01,1.18
						c0,0.65,0,1.3,0.02,1.94c0.021,2.58,0.12,5.11,0.271,7.6c0.109,1.72,0.239,3.42,0.399,5.09c0.19,2.03,0.431,4.01,0.7,5.95
						c0.16,1.16,0.34,2.32,0.521,3.45C719.43,191.82,721.14,198.31,723.24,203.83z"/>
					<path fill="none" stroke="#000000" stroke-width="0.8834" stroke-miterlimit="10" d="M763.08,151.2
						c-1.32-1.42-2.68-2.84-4.08-4.24l-0.25-0.25c-1.2-1.19-2.4-2.35-3.61-3.48c-3.71-3.46-7.46-6.63-11.199-9.47
						c5-3.43,9.89-6.14,14.42-8.05c1.779,5.39,3.159,11.65,4.029,18.48c0.13,1.05,0.25,2.12,0.36,3.21
						C762.87,148.65,762.98,149.92,763.08,151.2z"/>
					<path fill="none" stroke="#000000" stroke-width="0.8834" stroke-miterlimit="10" d="M750.3,142.83
						c-2.85-0.18-5.78-0.27-8.76-0.27c-3.16,0-6.26,0.11-9.271,0.31c3-2.65,6.011-5.06,9-7.23
						C744.26,137.79,747.29,140.2,750.3,142.83z"/>
					<path fill="none" stroke="#000000" stroke-width="0.8834" stroke-miterlimit="10" d="M763.41,160.86
						c0,4.55-0.22,8.98-0.641,13.22c-1.8,2.03-3.689,4.04-5.68,6.03c-1.05,1.05-2.109,2.069-3.17,3.08
						c-1.2,1.119-2.41,2.21-3.62,3.27c-3.01,2.62-6.03,5.03-9.03,7.19c-0.88,0.63-1.76,1.239-2.63,1.83
						c-4.1,2.779-8.109,5.079-11.909,6.85c-2.15-4.76-3.94-10.57-5.23-17.1c-0.21-1.091-0.41-2.19-0.6-3.32
						c-0.15-0.94-0.301-1.891-0.431-2.86c-0.229-1.64-0.43-3.32-0.6-5.02c-0.36-3.69-0.57-7.53-0.62-11.47
						c-0.01-0.57-0.01-1.13-0.01-1.7c0-1.67,0.029-3.33,0.09-4.97c2.03-2.36,4.22-4.7,6.53-7.01c0.909-0.91,1.83-1.8,2.75-2.68
						c4.17-0.47,8.58-0.73,13.14-0.73c4.2,0,8.27,0.22,12.15,0.62c1.069,1,2.13,2.03,3.189,3.09c2.2,2.2,4.28,4.42,6.23,6.66
						C763.38,157.49,763.41,159.17,763.41,160.86z"/>
					<path fill="none" stroke="#000000" stroke-width="0.8834" stroke-miterlimit="10" d="M766.02,170.27
						c0.2-3.14,0.301-6.36,0.301-9.63c0-0.42,0-0.84-0.011-1.26c1.44,1.76,2.79,3.52,4.061,5.27
						C769.01,166.52,767.56,168.39,766.02,170.27z"/>
					<path fill="none" stroke="#000000" stroke-width="0.8834" stroke-miterlimit="10" d="M779.78,148.72
						c-0.5,1.12-1.05,2.27-1.65,3.44c-1.63,3.19-3.61,6.5-5.92,9.87c-1.85-2.45-3.86-4.9-6-7.35c-0.09-2.24-0.22-4.45-0.4-6.62
						c-0.09-1.11-0.189-2.22-0.31-3.31c-0.77-7.4-2.08-14.27-3.8-20.33c8.25-2.86,15.05-2.74,18.819,1.03
						C784.94,129.87,784.33,138.47,779.78,148.72z"/>
				</g>
			</g>
		</g>
	</g>
</g>
</svg>
